<?xml version="1.0" standalone="no"?><!DOCTYPE svg PUBLIC "-//W3C//DTD SVG 1.1//EN" "http://www.w3.org/Graphics/SVG/1.1/DTD/svg11.dtd"><svg t="1505986296102" class="icon" style="" viewBox="0 0 1024 1024" version="1.1" xmlns="http://www.w3.org/2000/svg" p-id="6824" xmlns:xlink="http://www.w3.org/1999/xlink" width="200" height="200"><defs><style type="text/css"></style></defs><path d="M739.415 640.315c-9.965 13.136-7.49 32.087 5.527 42.213 96.11 74.816 151.236 188.265 151.236 311.271 0 16.663 13.369 30.201 29.803 30.201 16.423 0 29.776-13.538 29.776-30.2 0-142.015-63.616-272.923-174.52-359.146-12.67-9.925-32.17-7.223-41.822 5.66zM98.045 1024c16.418 0 29.776-13.538 29.776-30.2 0-215.825 172.35-391.413 384.183-391.413 163.183 0 295.935-135.08 295.935-301.12C807.938 135.146 675.185 0 512.002 0c-163.187 0-295.94 135.148-295.94 301.266 0 109.95 60.277 211.895 154.926 264.358C191.901 626.957 68.241 800.573 68.241 993.799c0 16.663 13.37 30.201 29.804 30.201zM512.002 60.546c130.33 0 236.356 107.983 236.356 240.72S642.334 541.993 512.002 541.993c-130.242 0-236.193-107.99-236.193-240.727 0-132.737 105.953-240.72 236.193-240.72z m0 0" fill="" p-id="6825"></path></svg>