<?xml version="1.0" standalone="no"?><!DOCTYPE svg PUBLIC "-//W3C//DTD SVG 1.1//EN" "http://www.w3.org/Graphics/SVG/1.1/DTD/svg11.dtd"><svg t="1505986125216" class="icon" style="" viewBox="0 0 1024 1024" version="1.1" xmlns="http://www.w3.org/2000/svg" p-id="1373" xmlns:xlink="http://www.w3.org/1999/xlink" width="200" height="200"><defs><style type="text/css"></style></defs><path d="M957.3 461.8l-386-379.2c-31.6-32.5-83.1-32.5-114.7 0l-386 379.2c-12.1 12.5-12.1 32.8 0 45.4 12.2 12.5 32 12.5 44.1 0l37-38.2v418.5c0 46 36.4 83.4 81.1 83.4H793c44.7 0 81.1-37.4 81.1-83.4V467.7l39.1 39.5c6.1 6.2 14.1 9.4 22 9.4s16-3.1 22.1-9.4c12.1-12.6 12.1-32.9 0-45.4zM623.6 906.7H403.4V708.2c0-10.6 8.4-19.2 18.7-19.2h182.7c10.3 0 18.7 8.7 18.7 19.2v198.5h0.1z m188.1-19.2c0 10.6-8.4 19.2-18.7 19.2H686V708.2c0-46-36.4-83.4-81.1-83.4H420.2c-44.7 0-81.1 37.5-81.1 83.4v198.5H232.8c-10.3 0-18.8-8.6-18.8-19.2v-488l286.6-272.6c7.3-7.5 19.2-7.5 26.5 0l284.6 276.6v484z" p-id="1374"></path></svg>