<?xml version="1.0" standalone="no"?><!DOCTYPE svg PUBLIC "-//W3C//DTD SVG 1.1//EN" "http://www.w3.org/Graphics/SVG/1.1/DTD/svg11.dtd"><svg t="1506070305339" class="icon" style="" viewBox="0 0 1024 1024" version="1.1" xmlns="http://www.w3.org/2000/svg" p-id="4458" xmlns:xlink="http://www.w3.org/1999/xlink" width="200" height="200"><defs><style type="text/css"></style></defs><path d="M807.424 672.128l0.064-0.256 0.384-0.512 0.128 0.384-0.576 0.384z m-30.592-15.424l0.064-0.128 0.256-0.576 0.128 0.448-0.448 0.256z" fill="" p-id="4459"></path><path d="M856 712.64c-46.656 0-88.32 20.672-116.48 53.376l-305.28-192.64a220.416 220.416 0 0 0-1.408-181.504L716.736 229.76a129.344 129.344 0 0 0 235.648-74.048 129.472 129.472 0 1 0-257.088 21.696L402.88 344.448a219.584 219.584 0 1 0 2.112 276.928L711.04 814.592a153.92 153.92 0 1 0 298.816 52.032A153.792 153.792 0 0 0 856 712.64zM822.528 82.816a73.344 73.344 0 1 1-0.064 146.624 73.344 73.344 0 0 1 0.064-146.624zM231.872 650.88a164.864 164.864 0 1 1 0-329.728 164.864 164.864 0 0 1 0 329.728zM856 963.968a97.344 97.344 0 1 1-0.064-194.752A97.344 97.344 0 0 1 856 963.968z" fill="" p-id="4460"></path></svg>