<?xml version="1.0" standalone="no"?><!DOCTYPE svg PUBLIC "-//W3C//DTD SVG 1.1//EN" "http://www.w3.org/Graphics/SVG/1.1/DTD/svg11.dtd"><svg t="1505996795109" class="icon" style="" viewBox="0 0 1024 1024" version="1.1" xmlns="http://www.w3.org/2000/svg" p-id="1264" xmlns:xlink="http://www.w3.org/1999/xlink" width="200" height="200"><defs><style type="text/css"></style></defs><path d="M358.684 545.386H186.586c-67.011 0-121.533 54.522-121.533 121.533v172.098c0 67.004 54.522 121.526 121.533 121.526h172.098c67.004 0 121.526-54.522 121.526-121.526V666.918c0-67.011-54.522-121.532-121.526-121.532zM136.021 666.918c0-27.886 22.68-50.565 50.565-50.565h172.098c27.878 0 50.565 22.685 50.565 50.565v172.098c0 27.878-22.687 50.565-50.565 50.565H186.586c-27.885 0-50.565-22.687-50.565-50.565V666.918zM358.684 66.463H186.586c-67.011 0-121.533 54.522-121.533 121.533v172.098c0 67.004 54.522 121.526 121.533 121.526h172.098c67.004 0 121.526-54.522 121.526-121.526V187.995c0-67.011-54.522-121.532-121.526-121.532zM136.021 187.995c0-27.885 22.68-50.565 50.565-50.565h172.098c27.878 0 50.565 22.68 50.565 50.565v172.098c0 27.878-22.687 50.565-50.565 50.565H186.586c-27.885 0-50.565-22.687-50.565-50.565V187.995z m703.334 357.391h-172.09c-67.009 0-121.531 54.522-121.531 121.533v172.098c0 67.004 54.522 121.526 121.531 121.526h172.091c67.011 0 121.526-54.522 121.526-121.526V666.918c0.006-67.011-54.516-121.532-121.527-121.532zM616.699 666.918c0-27.886 22.68-50.565 50.565-50.565h172.091c27.886 0 50.565 22.685 50.565 50.565v172.098c0 27.878-22.679 50.565-50.565 50.565h-172.09c-27.885 0-50.565-22.687-50.565-50.565V666.918zM839.355 66.463h-172.09c-67.009 0-121.531 54.522-121.531 121.533v172.098c0 67.004 54.522 121.526 121.531 121.526h172.091c67.011 0 121.526-54.522 121.526-121.526V187.995c0.006-67.011-54.516-121.532-121.527-121.532zM616.699 187.995c0-27.885 22.68-50.565 50.565-50.565h172.091c27.886 0 50.565 22.68 50.565 50.565v172.098c0 27.878-22.679 50.565-50.565 50.565h-172.09c-27.885 0-50.565-22.687-50.565-50.565V187.995z m0 0" fill="#989898" p-id="1265"></path></svg>