<?xml version="1.0" standalone="no"?><!DOCTYPE svg PUBLIC "-//W3C//DTD SVG 1.1//EN" "http://www.w3.org/Graphics/SVG/1.1/DTD/svg11.dtd"><svg t="1505986341289" class="icon" style="" viewBox="0 0 1024 1024" version="1.1" xmlns="http://www.w3.org/2000/svg" p-id="7525" xmlns:xlink="http://www.w3.org/1999/xlink" width="200" height="200"><defs><style type="text/css"></style></defs><path d="M866.132546 267.719278 766.002634 267.719278C720.228869 150.015482 624.185986 65.007117 513.021356 65.007117s-209.251128 85.008364-255.024893 202.711961L159.909965 267.719078c-26.156466 0-45.773765 19.617299-45.773765 45.773566l0 601.596917c0 26.156466 19.617299 45.773566 45.773765 45.773566l706.222581 0c26.156466 0 45.773566-13.078133 45.773566-39.234599l0-601.596917C911.906312 293.875544 892.289012 267.719278 866.132546 267.719278zM356.08296 195.789047c45.773765-52.312732 98.086497-85.008164 156.938396-85.008164s111.16463 26.156466 156.938396 78.469198c19.617299 26.156466 30.652018 52.312732 43.730151 78.469198l-403.380508 0C323.387527 241.562812 336.46566 215.406346 356.08296 195.789047zM166.040409 907.324626 166.040409 320.03201l78.877921 0c0 6.539166-6.539166 19.617299-6.539166 26.156466-13.078133 6.539166-26.156466 26.156466-26.156466 45.773765 0 32.695432 26.156466 52.312732 52.312732 52.312732 32.695432 0 52.312732-26.156466 52.312732-52.312732 0-19.617299-13.078133-39.234599-32.695432-45.773765 0-6.539166 1.839153-17.165162 6.539166-26.156466l437.915293-0.408723c1.634692 6.539166 6.334705 20.026022 6.334705 26.564989l0 0c-19.617299 6.539166-26.156466 26.156466-26.156466 45.773765 0 32.695432 26.156466 52.312732 52.312732 52.312732 32.695432 0 53.743162-26.156466 52.312732-52.312732-1.43043-25.33902-9.604288-41.686736-32.695432-45.773765 0-6.539166-3.678106-17.573885-4.700013-26.156466l81.125797 0 0 587.292616L166.040409 907.324626z" p-id="7526"></path></svg>