<?xml version="1.0" standalone="no"?><!DOCTYPE svg PUBLIC "-//W3C//DTD SVG 1.1//EN" "http://www.w3.org/Graphics/SVG/1.1/DTD/svg11.dtd"><svg t="1505990923281" class="icon" style="" viewBox="0 0 1024 1024" version="1.1" xmlns="http://www.w3.org/2000/svg" p-id="3488" xmlns:xlink="http://www.w3.org/1999/xlink" width="200" height="200"><defs><style type="text/css"></style></defs><path d="M869.130662 102.016l-45.930667 0 0 102.037333-163.242667 0L659.957328 102.016 364.063995 102.016l0 102.037333L200.821328 204.053333 200.821328 102.016 154.911995 102.016C98.826662 102.016 52.895995 147.925333 52.895995 204.053333l0 714.154667c0 56.128 45.930667 102.037333 102.016 102.037333l714.218667 0c56.085333 0 101.973333-45.909333 101.973333-102.037333L971.103995 204.053333C971.103995 147.925333 925.215995 102.016 869.130662 102.016zM889.525328 928.426667 134.517328 928.426667 134.517328 342.634667l755.008 0L889.525328 928.426667zM318.175995 0 246.751995 0l0 173.44 71.424 0L318.175995 0zM777.290662 0l-71.445333 0 0 173.44 71.445333 0L777.290662 0z" p-id="3489" fill="#d81e06"></path><path d="M512.010662 559.658667l256.448 0 0 257.536-256.448 0 0-257.536Z" p-id="3490" fill="#d81e06"></path></svg>