<?xml version="1.0" standalone="no"?><!DOCTYPE svg PUBLIC "-//W3C//DTD SVG 1.1//EN" "http://www.w3.org/Graphics/SVG/1.1/DTD/svg11.dtd"><svg t="1506070234887" class="icon" style="" viewBox="0 0 1024 1024" version="1.1" xmlns="http://www.w3.org/2000/svg" p-id="1028" xmlns:xlink="http://www.w3.org/1999/xlink" width="200" height="200"><defs><style type="text/css"></style></defs><path d="M512 955.733a34.04 34.04 0 0 1-24.132-10.001l-102.4-102.4c-13.346-13.346-13.346-34.918 0-48.265s34.918-13.346 48.265 0l78.268 78.268 78.268-78.268c6.383-6.417 15.053-10.001 24.132-10.001h238.933c18.842 0 34.133-15.292 34.133-34.133V204.8c0-18.807-15.292-34.133-34.133-34.133H170.667c-18.807 0-34.133 15.326-34.133 34.133v546.133c0 18.842 15.326 34.133 34.133 34.133h102.4c18.842 0 34.133 15.258 34.133 34.133s-15.292 34.133-34.133 34.133h-102.4c-56.457 0-102.4-45.943-102.4-102.4V204.799c0-56.457 45.943-102.4 102.4-102.4h682.667c56.457 0 102.4 45.943 102.4 102.4v546.133c0 56.457-45.943 102.4-102.4 102.4H628.532l-92.399 92.399a34.04 34.04 0 0 1-24.132 10.001z" p-id="1029"></path><path d="M324.267 512c-28.228 0-51.2-22.972-51.2-51.2s22.972-51.2 51.2-51.2 51.2 22.972 51.2 51.2-22.972 51.2-51.2 51.2zM529.067 512c-28.228 0-51.2-22.972-51.2-51.2s22.972-51.2 51.2-51.2 51.2 22.972 51.2 51.2-22.972 51.2-51.2 51.2zM733.867 512c-28.228 0-51.2-22.972-51.2-51.2s22.972-51.2 51.2-51.2 51.2 22.972 51.2 51.2-22.972 51.2-51.2 51.2z" p-id="1030"></path></svg>