<?xml version="1.0" standalone="no"?><!DOCTYPE svg PUBLIC "-//W3C//DTD SVG 1.1//EN" "http://www.w3.org/Graphics/SVG/1.1/DTD/svg11.dtd"><svg t="1505986231747" class="icon" style="" viewBox="0 0 1024 1024" version="1.1" xmlns="http://www.w3.org/2000/svg" p-id="4874" xmlns:xlink="http://www.w3.org/1999/xlink" width="200" height="200"><defs><style type="text/css"></style></defs><path d="M950.767598 271.618037 531.953479 271.618037 700.252193 23.818812 666.822281 0l-184.470435 271.618037-108.229341 0L197.967762 9.820037 163.702102 33.638849 323.831381 271.618037 73.232402 271.618037c-34.620853 0-62.681085 28.060233-62.681085 62.681085l0 626.810855c0 34.620853 28.060233 62.681085 62.681085 62.681085l877.535197 0c34.620853 0 62.681085-28.060233 62.681085-62.681085L1013.448684 334.299123C1013.448684 299.67827 985.388451 271.618037 950.767598 271.618037zM971.661294 961.109978c0 11.53332-9.360375 20.893695-20.893695 20.893695L73.232402 982.003673c-11.53332 0-20.893695-9.360375-20.893695-20.893695L52.338706 334.299123c0-11.53332 9.360375-20.893695 20.893695-20.893695l430.201183 0.208937L503.579841 313.405427 950.767598 313.405427c11.53332 0 20.893695 9.360375 20.893695 20.893695L971.661294 961.109978z" p-id="4875"></path><path d="M741.830647 396.980208 198.594573 396.980208c-34.620853 0-62.681085 28.060233-62.681085 62.681085l0 376.086513c0 34.620853 28.060233 62.681085 62.681085 62.681085l543.236074 0c34.620853 0 62.681085-28.060233 62.681085-62.681085L804.511732 459.661294C804.511732 425.040441 776.4515 396.980208 741.830647 396.980208zM762.724342 835.747807c0 11.53332-9.360375 20.893695-20.893695 20.893695L198.594573 856.641502c-11.53332 0-20.893695-9.360375-20.893695-20.893695L177.700877 459.661294c0-11.53332 9.360375-20.893695 20.893695-20.893695l543.236074 0c11.53332 0 20.893695 9.360375 20.893695 20.893695L762.724342 835.747807z" p-id="4876"></path><path d="M888.086513 438.767598m-41.78739 0a2 2 0 1 0 83.574781 0 2 2 0 1 0-83.574781 0Z" p-id="4877"></path><path d="M888.086513 564.129769m-41.78739 0a2 2 0 1 0 83.574781 0 2 2 0 1 0-83.574781 0Z" p-id="4878"></path></svg>